# xmcd CD database file
#
# Track frame offsets:
#	150
#	21477
#	43882
#	76507
#
# Disc length: 4440 seconds
#
# Revision: 0
# Processed by: cddbd v1.5PL3 Copyright (c) Steve Scherf et al.
# Submitted via: CDex 1.51
#
DISCID=27115604
DTITLE=光永亮太 - believe
DYEAR=2004
DGENRE=JPop
TTITLE0=believe
TTITLE1=小さな手
TTITLE2=believe（less vocal）
TTITLE3=date
EXTD=YEAR: 2004
EXTT0=
EXTT1=
EXTT2=
EXTT3=
PLAYORDER=
